<svg xmlns="http://www.w3.org/2000/svg" width="1024" height="1024" viewBox="0 0 1024 1024">
	<title>Folio</title>
	<desc>Seven offset ceramic sheets with an embossed orange check. Original artwork authored for Folio.</desc>

	<defs>
		<linearGradient id="bg" x1="0" y1="0" x2="0.35" y2="1">
			<stop offset="0" stop-color="#34352f"/>
			<stop offset="1" stop-color="#161714"/>
		</linearGradient>
		<radialGradient id="bgGlow" cx="512" cy="300" r="560" gradientUnits="userSpaceOnUse">
			<stop offset="0" stop-color="#e94d20" stop-opacity="0.16"/>
			<stop offset="0.55" stop-color="#e94d20" stop-opacity="0.04"/>
			<stop offset="1" stop-color="#e94d20" stop-opacity="0"/>
		</radialGradient>
		<radialGradient id="bgVignette" cx="512" cy="512" r="760" gradientUnits="userSpaceOnUse">
			<stop offset="0.6" stop-color="#000000" stop-opacity="0"/>
			<stop offset="1" stop-color="#000000" stop-opacity="0.35"/>
		</radialGradient>
		<filter id="grain" x="0" y="0" width="100%" height="100%">
			<feTurbulence type="fractalNoise" baseFrequency="0.85" numOctaves="2" seed="7" stitchTiles="stitch"/>
			<feColorMatrix type="matrix" values="0 0 0 0 1  0 0 0 0 1  0 0 0 0 1  0 0 0 0.06 0"/>
		</filter>
		<filter id="lift" x="-20%" y="-30%" width="140%" height="180%">
			<feGaussianBlur in="SourceAlpha" stdDeviation="5"/>
			<feOffset dy="-3" result="ao"/>
			<feFlood flood-color="#0b0b09" flood-opacity="0.32"/>
			<feComposite in2="ao" operator="in" result="aoShadow"/>
			<feGaussianBlur in="SourceAlpha" stdDeviation="14"/>
			<feOffset dy="10" result="key"/>
			<feFlood flood-color="#000000" flood-opacity="0.28"/>
			<feComposite in2="key" operator="in" result="keyShadow"/>
			<feMerge><feMergeNode in="keyShadow"/><feMergeNode in="aoShadow"/><feMergeNode in="SourceGraphic"/></feMerge>
		</filter>
		<filter id="liftFront" x="-20%" y="-30%" width="140%" height="170%">
			<feGaussianBlur in="SourceAlpha" stdDeviation="6"/>
			<feOffset dy="-3" result="ao"/>
			<feFlood flood-color="#0b0b09" flood-opacity="0.38"/>
			<feComposite in2="ao" operator="in" result="aoShadow"/>
			<feGaussianBlur in="SourceAlpha" stdDeviation="26"/>
			<feOffset dy="30" result="key"/>
			<feFlood flood-color="#000000" flood-opacity="0.5"/>
			<feComposite in2="key" operator="in" result="keyShadow"/>
			<feMerge><feMergeNode in="keyShadow"/><feMergeNode in="aoShadow"/><feMergeNode in="SourceGraphic"/></feMerge>
		</filter>
		<filter id="checkShadow" x="-20%" y="-20%" width="140%" height="150%">
			<feGaussianBlur in="SourceAlpha" stdDeviation="7"/>
			<feOffset dy="10" result="drop"/>
			<feFlood flood-color="#9e2f0e" flood-opacity="0.45"/>
			<feComposite in2="drop" operator="in" result="dropShadow"/>
			<feMerge><feMergeNode in="dropShadow"/><feMergeNode in="SourceGraphic"/></feMerge>
		</filter>
		<linearGradient id="frontFace" x1="0" y1="0" x2="0" y2="1">
			<stop offset="0" stop-color="#fdfcfa"/>
			<stop offset="1" stop-color="#ecebe5"/>
		</linearGradient>
		<linearGradient id="glaze" x1="0" y1="0" x2="0" y2="1">
			<stop offset="0" stop-color="#ffffff" stop-opacity="0.9"/>
			<stop offset="0.07" stop-color="#ffffff" stop-opacity="0"/>
			<stop offset="0.9" stop-color="#9c9a91" stop-opacity="0"/>
			<stop offset="1" stop-color="#9c9a91" stop-opacity="0.18"/>
		</linearGradient>
		<linearGradient id="sheen" x1="0" y1="0" x2="1" y2="0.9">
			<stop offset="0.18" stop-color="#ffffff" stop-opacity="0"/>
			<stop offset="0.34" stop-color="#ffffff" stop-opacity="0.55"/>
			<stop offset="0.5" stop-color="#ffffff" stop-opacity="0"/>
		</linearGradient>
		<linearGradient id="orangeBody" gradientUnits="userSpaceOnUse" x1="0" y1="520" x2="0" y2="720">
			<stop offset="0" stop-color="#ff8a5c"/>
			<stop offset="0.5" stop-color="#e94d20"/>
			<stop offset="1" stop-color="#c23b13"/>
		</linearGradient>
		<linearGradient id="checkGloss" gradientUnits="userSpaceOnUse" x1="380" y1="520" x2="560" y2="700">
			<stop offset="0" stop-color="#ffffff" stop-opacity="0.32"/>
			<stop offset="0.45" stop-color="#ffffff" stop-opacity="0"/>
		</linearGradient>
		<mask id="checkRim" maskUnits="userSpaceOnUse" x="0" y="0" width="1024" height="1024">
			<path d="M406 614 L480 686 L626 538" fill="none" stroke="#ffffff" stroke-width="64" stroke-linecap="round" stroke-linejoin="round"/>
			<path d="M406 614 L480 686 L626 538" transform="translate(0 7)" fill="none" stroke="#000000" stroke-width="64" stroke-linecap="round" stroke-linejoin="round"/>
		</mask>
		<mask id="checkBody" maskUnits="userSpaceOnUse" x="0" y="0" width="1024" height="1024">
			<path d="M406 614 L480 686 L626 538" fill="none" stroke="#ffffff" stroke-width="64" stroke-linecap="round" stroke-linejoin="round"/>
		</mask>
		<clipPath id="tile"><rect width="1024" height="1024" rx="228"/></clipPath>
	</defs>

	<rect width="1024" height="1024" fill="url(#bg)"/>
	<rect width="1024" height="1024" fill="url(#bgGlow)"/>
	<rect width="1024" height="1024" filter="url(#grain)" opacity="1"/>
	<rect width="1024" height="1024" fill="url(#bgVignette)"/><g transform="translate(512 512) scale(1) translate(-512 -511)">
	<linearGradient id="face6" gradientUnits="userSpaceOnUse" x1="0" y1="208" x2="0" y2="252">
		<stop offset="0" stop-color="#ffffff" stop-opacity="0.55"/>
		<stop offset="0.16" stop-color="#a4a39a" stop-opacity="0"/>
	</linearGradient>
	<g filter="url(#lift)">
		<rect x="310" y="208" width="404" height="376" rx="48" fill="#a4a39a"/>
		<rect x="310" y="208" width="404" height="376" rx="48" fill="url(#face6)"/>
		<rect x="310" y="208" width="404" height="376" rx="48" fill="none" stroke="#ffffff" stroke-opacity="0.35" stroke-width="2"/>
	</g>
	<linearGradient id="face5" gradientUnits="userSpaceOnUse" x1="0" y1="244" x2="0" y2="288">
		<stop offset="0" stop-color="#ffffff" stop-opacity="0.55"/>
		<stop offset="0.16" stop-color="#b5b4ab" stop-opacity="0"/>
	</linearGradient>
	<g filter="url(#lift)">
		<rect x="291" y="244" width="442" height="376" rx="51" fill="#b5b4ab"/>
		<rect x="291" y="244" width="442" height="376" rx="51" fill="url(#face5)"/>
		<rect x="291" y="244" width="442" height="376" rx="51" fill="none" stroke="#ffffff" stroke-opacity="0.35" stroke-width="2"/>
	</g>
	<linearGradient id="face4" gradientUnits="userSpaceOnUse" x1="0" y1="280" x2="0" y2="324">
		<stop offset="0" stop-color="#ffffff" stop-opacity="0.55"/>
		<stop offset="0.16" stop-color="#c5c4bc" stop-opacity="0"/>
	</linearGradient>
	<g filter="url(#lift)">
		<rect x="272" y="280" width="480" height="376" rx="54" fill="#c5c4bc"/>
		<rect x="272" y="280" width="480" height="376" rx="54" fill="url(#face4)"/>
		<rect x="272" y="280" width="480" height="376" rx="54" fill="none" stroke="#ffffff" stroke-opacity="0.35" stroke-width="2"/>
	</g>
	<linearGradient id="face3" gradientUnits="userSpaceOnUse" x1="0" y1="316" x2="0" y2="360">
		<stop offset="0" stop-color="#ffffff" stop-opacity="0.55"/>
		<stop offset="0.16" stop-color="#d4d3cc" stop-opacity="0"/>
	</linearGradient>
	<g filter="url(#lift)">
		<rect x="253" y="316" width="518" height="376" rx="57" fill="#d4d3cc"/>
		<rect x="253" y="316" width="518" height="376" rx="57" fill="url(#face3)"/>
		<rect x="253" y="316" width="518" height="376" rx="57" fill="none" stroke="#ffffff" stroke-opacity="0.35" stroke-width="2"/>
	</g>
	<linearGradient id="face2" gradientUnits="userSpaceOnUse" x1="0" y1="352" x2="0" y2="396">
		<stop offset="0" stop-color="#ffffff" stop-opacity="0.55"/>
		<stop offset="0.16" stop-color="#e2e1db" stop-opacity="0"/>
	</linearGradient>
	<g filter="url(#lift)">
		<rect x="234" y="352" width="556" height="376" rx="60" fill="#e2e1db"/>
		<rect x="234" y="352" width="556" height="376" rx="60" fill="url(#face2)"/>
		<rect x="234" y="352" width="556" height="376" rx="60" fill="none" stroke="#ffffff" stroke-opacity="0.35" stroke-width="2"/>
	</g>
	<linearGradient id="face1" gradientUnits="userSpaceOnUse" x1="0" y1="388" x2="0" y2="432">
		<stop offset="0" stop-color="#ffffff" stop-opacity="0.55"/>
		<stop offset="0.16" stop-color="#efeee9" stop-opacity="0"/>
	</linearGradient>
	<g filter="url(#lift)">
		<rect x="215" y="388" width="594" height="376" rx="63" fill="#efeee9"/>
		<rect x="215" y="388" width="594" height="376" rx="63" fill="url(#face1)"/>
		<rect x="215" y="388" width="594" height="376" rx="63" fill="none" stroke="#ffffff" stroke-opacity="0.35" stroke-width="2"/>
	</g>
	<g filter="url(#liftFront)">
		<rect x="196" y="438" width="632" height="376" rx="66" fill="#bdbbb2"/>
		<rect x="196" y="424" width="632" height="376" rx="66" fill="url(#frontFace)"/>
		<rect x="196" y="424" width="632" height="376" rx="66" fill="url(#glaze)"/>
		<rect x="196" y="424" width="632" height="376" rx="66" fill="url(#sheen)"/>
		<rect x="196" y="424" width="632" height="376" rx="66" fill="none" stroke="#ffffff" stroke-opacity="0.9" stroke-width="2.5"/>
	</g>
	<g filter="url(#checkShadow)">
		<path d="M406 614 L480 686 L626 538" transform="translate(0 5)" fill="none" stroke="#9e2f0e" stroke-width="64" stroke-linecap="round" stroke-linejoin="round"/>
	</g>
	<path d="M406 614 L480 686 L626 538" fill="none" stroke="url(#orangeBody)" stroke-width="64" stroke-linecap="round" stroke-linejoin="round"/>
	<rect x="340" y="470" width="350" height="290" fill="#ffc9b0" mask="url(#checkRim)" opacity="0.85"/>
	<rect x="340" y="470" width="350" height="290" fill="url(#checkGloss)" mask="url(#checkBody)"/></g>
</svg>
